<svg width="14" height="14" viewBox="0 0 14 14" fill="none" xmlns="http://www.w3.org/2000/svg">
<g clip-path="url(#clip0_2063_5908)">
<path d="M7.15202 2.76936C7.11131 2.73041 7.05714 2.70868 7.00081 2.70868C6.94447 2.70868 6.89031 2.73041 6.8496 2.76936L1.81561 7.5783C1.79423 7.59875 1.77723 7.62333 1.76562 7.65054C1.75401 7.67775 1.74804 7.70704 1.74807 7.73662L1.74725 12.25C1.74725 12.482 1.83944 12.7046 2.00353 12.8687C2.16763 13.0328 2.39019 13.125 2.62225 13.125H5.24999C5.36602 13.125 5.4773 13.0789 5.55935 12.9968C5.64139 12.9148 5.68749 12.8035 5.68749 12.6875V8.96873C5.68749 8.91072 5.71053 8.85508 5.75156 8.81405C5.79258 8.77303 5.84822 8.74998 5.90624 8.74998H8.09374C8.15175 8.74998 8.20739 8.77303 8.24842 8.81405C8.28944 8.85508 8.31249 8.91072 8.31249 8.96873V12.6875C8.31249 12.8035 8.35858 12.9148 8.44063 12.9968C8.52268 13.0789 8.63396 13.125 8.74999 13.125H11.3766C11.6087 13.125 11.8313 13.0328 11.9953 12.8687C12.1594 12.7046 12.2516 12.482 12.2516 12.25V7.73662C12.2517 7.70704 12.2457 7.67775 12.2341 7.65054C12.2225 7.62333 12.2055 7.59875 12.1841 7.5783L7.15202 2.76936Z" fill="black"/>
<path d="M13.4233 6.67598L11.378 4.71926V1.75C11.378 1.63397 11.3319 1.52269 11.2499 1.44064C11.1678 1.35859 11.0566 1.3125 10.9405 1.3125H9.62802C9.51198 1.3125 9.40071 1.35859 9.31866 1.44064C9.23661 1.52269 9.19052 1.63397 9.19052 1.75V2.625L7.60677 1.1107C7.45856 0.960859 7.23817 0.875 7.00001 0.875C6.76267 0.875 6.54282 0.960859 6.39462 1.11098L0.578604 6.67543C0.408526 6.83949 0.387198 7.10938 0.541963 7.28711C0.580827 7.33197 0.628414 7.36846 0.681826 7.39434C0.735239 7.42023 0.793361 7.43498 0.852654 7.43769C0.911948 7.4404 0.971173 7.43102 1.02673 7.41012C1.08228 7.38921 1.133 7.35722 1.17579 7.31609L6.84962 1.89437C6.89033 1.85543 6.94449 1.8337 7.00083 1.8337C7.05717 1.8337 7.11133 1.85543 7.15204 1.89437L12.8264 7.31609C12.91 7.39625 13.022 7.44 13.1378 7.43774C13.2535 7.43549 13.3637 7.38741 13.4441 7.30406C13.612 7.13016 13.5981 6.84305 13.4233 6.67598Z" fill="black"/>
</g>
<defs>
<clipPath id="clip0_2063_5908">
<rect width="14" height="14" fill="white"/>
</clipPath>
</defs>
</svg>
