<svg width="14" height="14" viewBox="0 0 14 14" fill="none" xmlns="http://www.w3.org/2000/svg">
<path d="M6.78125 1.75C4.00285 1.75 1.75 4.00285 1.75 6.78125C1.75 9.55965 4.00285 11.8125 6.78125 11.8125C9.55965 11.8125 11.8125 9.55965 11.8125 6.78125C11.8125 4.00285 9.55965 1.75 6.78125 1.75Z" stroke="black" stroke-width="0.875" stroke-miterlimit="10"/>
<path d="M6.01562 6.01562H6.89062V9.1875" stroke="black" stroke-width="0.875" stroke-linecap="round" stroke-linejoin="round"/>
<path d="M5.6875 9.29688H8.09375" stroke="black" stroke-width="0.875" stroke-miterlimit="10" stroke-linecap="round"/>
<path d="M6.78125 3.55469C6.64064 3.55469 6.50319 3.59638 6.38627 3.6745C6.26936 3.75262 6.17824 3.86365 6.12443 3.99356C6.07062 4.12347 6.05654 4.26641 6.08397 4.40432C6.11141 4.54223 6.17912 4.66891 6.27854 4.76833C6.37797 4.86776 6.50465 4.93547 6.64255 4.9629C6.78046 4.99033 6.92341 4.97625 7.05331 4.92245C7.18322 4.86864 7.29425 4.77751 7.37237 4.6606C7.45049 4.54369 7.49219 4.40624 7.49219 4.26562C7.49219 4.07707 7.41729 3.89624 7.28396 3.76292C7.15063 3.62959 6.9698 3.55469 6.78125 3.55469Z" fill="black"/>
</svg>
